<svg width="20" height="20" viewBox="0 0 20 20" fill="none" xmlns="http://www.w3.org/2000/svg">
<path d="M19.4358 9.71393C18.0142 6.70924 13.7815 3 10 3C5.74507 3 1.68662 7.34154 0.564201 9.71393C0.4786 9.89492 0.4786 10.1051 0.564201 10.2861C1.98584 13.2908 6.21848 17 10 17C14.2549 17 18.3134 12.6583 19.4358 10.2861C19.5214 10.1051 19.5214 9.89492 19.4358 9.71393ZM10 15.6667C6.94064 15.6667 3.40411 12.6426 1.91619 10C3.39788 7.36823 6.93286 4.33333 10 4.33333C13.0591 4.33333 16.5959 7.35716 18.0838 10C16.6021 12.6316 13.0671 15.6667 10 15.6667ZM10 6.66667C8.16916 6.66667 6.67969 8.16198 6.67969 10C6.67969 11.838 8.16916 13.3333 10 13.3333C11.8308 13.3333 13.3203 11.838 13.3203 10C13.3203 8.16198 11.8308 6.66667 10 6.66667ZM10 12C8.90157 12 8.00781 11.1027 8.00781 10C8.00781 8.89714 8.90157 8 10 8C11.0986 8 11.9922 8.89714 11.9922 10C11.9922 11.1027 11.0986 12 10 12Z" fill="#4B99F5"/>
</svg>
