<svg width="20" height="20" viewBox="0 0 20 20" fill="none" xmlns="http://www.w3.org/2000/svg">
<g clip-path="url(#clip0_3_198)">
<path d="M18.9539 11.5342L14.0697 16.9723L11.3133 14.3485L10.3438 15.3671L14.1486 18.9889L20.0001 12.4738L18.9539 11.5342Z" fill="#4B99F5"/>
<path d="M12.9477 10.491C14.3113 9.55193 15.207 7.98027 15.207 6.20312C15.207 3.33413 12.8729 1 10.0039 1C7.13491 1 4.80078 3.33413 4.80078 6.20312C4.80078 7.9802 5.69653 9.55179 7.05996 10.4909C5.78695 10.9301 4.62018 11.6558 3.63992 12.6361C1.94008 14.3359 1.00391 16.596 1.00391 19H2.41016C2.41016 14.8128 5.81669 11.4062 10.0039 11.4062C11.779 11.4062 13.4131 12.0192 14.7076 13.0435L15.6517 11.9923C14.8369 11.3331 13.9235 10.8279 12.9477 10.491ZM10.0039 10C7.91032 10 6.20703 8.29671 6.20703 6.20312C6.20703 4.10954 7.91032 2.40625 10.0039 2.40625C12.0975 2.40625 13.8008 4.10954 13.8008 6.20312C13.8008 8.29671 12.0975 10 10.0039 10Z" fill="#4B99F5"/>
</g>
<defs>
<clipPath id="clip0_3_198">
<rect width="20" height="20" fill="white"/>
</clipPath>
</defs>
</svg>
